<svg xmlns="http://www.w3.org/2000/svg" width="1120" height="1060" viewBox="0 0 1120 1060" font-family="Helvetica,Arial,sans-serif">
<rect width="1120" height="1060" fill="#f1f5f9"/>
<text x="560.0" y="40" text-anchor="middle" font-size="22" font-weight="700" fill="#1a202c">Shopping App — Entity Relationship Diagram</text>
<text x="560.0" y="62" text-anchor="middle" font-size="13" fill="#64748b">users · categories · products  —  with cardinality &amp; participation</text>
<path d="M560,318 V440 H850 V540" fill="none" stroke="#4a5568" stroke-width="1.7"/>
<line x1="552.0" y1="330.0" x2="568.0" y2="330.0" stroke="#4a5568" stroke-width="1.7"/><line x1="552.0" y1="338.0" x2="568.0" y2="338.0" stroke="#4a5568" stroke-width="1.7"/>
<line x1="850.0" y1="524.0" x2="850.0" y2="540.0" stroke="#4a5568" stroke-width="1.7"/><line x1="850.0" y1="524.0" x2="859.0" y2="540.0" stroke="#4a5568" stroke-width="1.7"/><line x1="850.0" y1="524.0" x2="841.0" y2="540.0" stroke="#4a5568" stroke-width="1.7"/><circle cx="850.0" cy="517.0" r="4.5" fill="#fff" stroke="#4a5568" stroke-width="1.7"/>
<rect x="675" y="421" width="60" height="20" rx="10" fill="#edf2f7" stroke="#cbd5e0"/>
<text x="705" y="435" text-anchor="middle" font-family="Helvetica,Arial,sans-serif" font-size="11" fill="#2d3748">creates</text>
<path d="M705,210 H980 V540" fill="none" stroke="#4a5568" stroke-width="1.7"/>
<line x1="721.0" y1="210.0" x2="705.0" y2="210.0" stroke="#4a5568" stroke-width="1.7"/><line x1="721.0" y1="210.0" x2="705.0" y2="219.0" stroke="#4a5568" stroke-width="1.7"/><line x1="721.0" y1="210.0" x2="705.0" y2="201.0" stroke="#4a5568" stroke-width="1.7"/><circle cx="728.0" cy="210.0" r="4.5" fill="#fff" stroke="#4a5568" stroke-width="1.7"/>
<line x1="980.0" y1="524.0" x2="980.0" y2="540.0" stroke="#4a5568" stroke-width="1.7"/><line x1="980.0" y1="524.0" x2="989.0" y2="540.0" stroke="#4a5568" stroke-width="1.7"/><line x1="980.0" y1="524.0" x2="971.0" y2="540.0" stroke="#4a5568" stroke-width="1.7"/><circle cx="980.0" cy="517.0" r="4.5" fill="#fff" stroke="#4a5568" stroke-width="1.7"/>
<rect x="799" y="189" width="92" height="20" rx="10" fill="#edf2f7" stroke="#cbd5e0"/>
<text x="845" y="203" text-anchor="middle" font-family="Helvetica,Arial,sans-serif" font-size="11" fill="#2d3748">orders (M:N)</text>
<path d="M415,300 H220 V560" fill="none" stroke="#4a5568" stroke-width="1.7"/>
<line x1="403.0" y1="292.0" x2="403.0" y2="308.0" stroke="#4a5568" stroke-width="1.7"/><line x1="395.0" y1="292.0" x2="395.0" y2="308.0" stroke="#4a5568" stroke-width="1.7"/>
<line x1="220.0" y1="544.0" x2="220.0" y2="560.0" stroke="#4a5568" stroke-width="1.7"/><line x1="220.0" y1="544.0" x2="229.0" y2="560.0" stroke="#4a5568" stroke-width="1.7"/><line x1="220.0" y1="544.0" x2="211.0" y2="560.0" stroke="#4a5568" stroke-width="1.7"/><circle cx="220.0" cy="537.0" r="4.5" fill="#fff" stroke="#4a5568" stroke-width="1.7"/>
<rect x="288" y="289" width="60" height="20" rx="10" fill="#edf2f7" stroke="#cbd5e0"/>
<text x="318" y="303" text-anchor="middle" font-family="Helvetica,Arial,sans-serif" font-size="11" fill="#2d3748">creates</text>
<path d="M780,765 H560 V603 H360" fill="none" stroke="#4a5568" stroke-width="1.7"/>
<line x1="764.0" y1="765.0" x2="780.0" y2="765.0" stroke="#4a5568" stroke-width="1.7"/><line x1="764.0" y1="765.0" x2="780.0" y2="774.0" stroke="#4a5568" stroke-width="1.7"/><line x1="764.0" y1="765.0" x2="780.0" y2="756.0" stroke="#4a5568" stroke-width="1.7"/><circle cx="757.0" cy="765.0" r="4.5" fill="#fff" stroke="#4a5568" stroke-width="1.7"/>
<line x1="372.0" y1="595.0" x2="372.0" y2="611.0" stroke="#4a5568" stroke-width="1.7"/><circle cx="383.0" cy="603.0" r="4.5" fill="#fff" stroke="#4a5568" stroke-width="1.7"/>
<rect x="520" y="679" width="79" height="20" rx="10" fill="#edf2f7" stroke="#cbd5e0"/>
<text x="560" y="693" text-anchor="middle" font-family="Helvetica,Arial,sans-serif" font-size="11" fill="#2d3748">belongs to</text>
<path d="M60,603 H30 V681 H60" fill="none" stroke="#4a5568" stroke-width="1.7"/>
<line x1="48.0" y1="595.0" x2="48.0" y2="611.0" stroke="#4a5568" stroke-width="1.7"/><circle cx="37.0" cy="603.0" r="4.5" fill="#fff" stroke="#4a5568" stroke-width="1.7"/>
<line x1="44.0" y1="681.0" x2="60.0" y2="681.0" stroke="#4a5568" stroke-width="1.7"/><line x1="44.0" y1="681.0" x2="60.0" y2="690.0" stroke="#4a5568" stroke-width="1.7"/><line x1="44.0" y1="681.0" x2="60.0" y2="672.0" stroke="#4a5568" stroke-width="1.7"/><circle cx="37.0" cy="681.0" r="4.5" fill="#fff" stroke="#4a5568" stroke-width="1.7"/>
<rect x="59" y="631" width="73" height="20" rx="10" fill="#edf2f7" stroke="#cbd5e0"/>
<text x="95" y="645" text-anchor="middle" font-family="Helvetica,Arial,sans-serif" font-size="11" fill="#2d3748">parent of</text>
<rect x="418" y="83" width="290" height="238" rx="8" fill="#00000018"/>
<rect x="415" y="80" width="290" height="238" rx="8" fill="#ffffff" stroke="#cbd5e0" stroke-width="1.5"/>
<path d="M415,88 a8,8 0 0 1 8,-8 h274 a8,8 0 0 1 8,8 v22 h-290 z" fill="#2d3748"/>
<text x="560.0" y="100" text-anchor="middle" font-family="Helvetica,Arial,sans-serif" font-size="15" font-weight="700" fill="#fff">users</text>
<rect x="415" y="110" width="290" height="26" fill="#ffffff"/>
<text x="427" y="127" font-family="Menlo,monospace" font-size="12.5" font-weight="700" fill="#1a202c" text-decoration="underline">id</text>
<text x="565" y="127" font-family="Menlo,monospace" font-size="11" fill="#718096">uuid</text>
<rect x="667" y="115" width="30" height="16" rx="8" fill="#fefcbf"/>
<text x="682" y="126.5" text-anchor="middle" font-family="Helvetica,Arial,sans-serif" font-size="9.5" font-weight="700" fill="#b7791f">PK</text>
<line x1="415" y1="136" x2="705" y2="136" stroke="#edf2f7"/>
<rect x="415" y="136" width="290" height="26" fill="#f7fafc"/>
<text x="427" y="153" font-family="Menlo,monospace" font-size="12.5" font-weight="400" fill="#1a202c">email</text>
<text x="565" y="153" font-family="Menlo,monospace" font-size="11" fill="#718096">varchar</text>
<rect x="667" y="141" width="30" height="16" rx="8" fill="#c6f6d5"/>
<text x="682" y="152.5" text-anchor="middle" font-family="Helvetica,Arial,sans-serif" font-size="9.5" font-weight="700" fill="#2f855a">UQ</text>
<line x1="415" y1="162" x2="705" y2="162" stroke="#edf2f7"/>
<rect x="415" y="162" width="290" height="26" fill="#ffffff"/>
<text x="427" y="179" font-family="Menlo,monospace" font-size="12.5" font-weight="400" fill="#1a202c">password</text>
<text x="565" y="179" font-family="Menlo,monospace" font-size="11" fill="#718096">varchar</text>
<line x1="415" y1="188" x2="705" y2="188" stroke="#edf2f7"/>
<rect x="415" y="188" width="290" height="26" fill="#f7fafc"/>
<text x="427" y="205" font-family="Menlo,monospace" font-size="12.5" font-weight="400" fill="#1a202c">firstName</text>
<text x="565" y="205" font-family="Menlo,monospace" font-size="11" fill="#718096">varchar</text>
<line x1="415" y1="214" x2="705" y2="214" stroke="#edf2f7"/>
<rect x="415" y="214" width="290" height="26" fill="#ffffff"/>
<text x="427" y="231" font-family="Menlo,monospace" font-size="12.5" font-weight="400" fill="#1a202c">lastName</text>
<text x="565" y="231" font-family="Menlo,monospace" font-size="11" fill="#718096">varchar</text>
<line x1="415" y1="240" x2="705" y2="240" stroke="#edf2f7"/>
<rect x="415" y="240" width="290" height="26" fill="#f7fafc"/>
<text x="427" y="257" font-family="Menlo,monospace" font-size="12.5" font-weight="400" fill="#1a202c">role</text>
<text x="565" y="257" font-family="Menlo,monospace" font-size="11" fill="#718096">enum(customer,admin)</text>
<line x1="415" y1="266" x2="705" y2="266" stroke="#edf2f7"/>
<rect x="415" y="266" width="290" height="26" fill="#ffffff"/>
<text x="427" y="283" font-family="Menlo,monospace" font-size="12.5" font-weight="400" fill="#1a202c">createdAt</text>
<text x="565" y="283" font-family="Menlo,monospace" font-size="11" fill="#718096">timestamp</text>
<line x1="415" y1="292" x2="705" y2="292" stroke="#edf2f7"/>
<rect x="415" y="292" width="290" height="26" fill="#f7fafc"/>
<text x="427" y="309" font-family="Menlo,monospace" font-size="12.5" font-weight="400" fill="#1a202c">updatedAt</text>
<text x="565" y="309" font-family="Menlo,monospace" font-size="11" fill="#718096">timestamp</text>
<rect x="63" y="563" width="290" height="212" rx="8" fill="#00000018"/>
<rect x="60" y="560" width="290" height="212" rx="8" fill="#ffffff" stroke="#cbd5e0" stroke-width="1.5"/>
<path d="M60,568 a8,8 0 0 1 8,-8 h274 a8,8 0 0 1 8,8 v22 h-290 z" fill="#2d3748"/>
<text x="205.0" y="580" text-anchor="middle" font-family="Helvetica,Arial,sans-serif" font-size="15" font-weight="700" fill="#fff">categories</text>
<rect x="60" y="590" width="290" height="26" fill="#ffffff"/>
<text x="72" y="607" font-family="Menlo,monospace" font-size="12.5" font-weight="700" fill="#1a202c" text-decoration="underline">id</text>
<text x="210" y="607" font-family="Menlo,monospace" font-size="11" fill="#718096">uuid</text>
<rect x="312" y="595" width="30" height="16" rx="8" fill="#fefcbf"/>
<text x="327" y="606.5" text-anchor="middle" font-family="Helvetica,Arial,sans-serif" font-size="9.5" font-weight="700" fill="#b7791f">PK</text>
<line x1="60" y1="616" x2="350" y2="616" stroke="#edf2f7"/>
<rect x="60" y="616" width="290" height="26" fill="#f7fafc"/>
<text x="72" y="633" font-family="Menlo,monospace" font-size="12.5" font-weight="400" fill="#1a202c">name</text>
<text x="210" y="633" font-family="Menlo,monospace" font-size="11" fill="#718096">varchar</text>
<line x1="60" y1="642" x2="350" y2="642" stroke="#edf2f7"/>
<rect x="60" y="642" width="290" height="26" fill="#ffffff"/>
<text x="72" y="659" font-family="Menlo,monospace" font-size="12.5" font-weight="400" fill="#1a202c">slug</text>
<text x="210" y="659" font-family="Menlo,monospace" font-size="11" fill="#718096">varchar</text>
<rect x="312" y="647" width="30" height="16" rx="8" fill="#c6f6d5"/>
<text x="327" y="658.5" text-anchor="middle" font-family="Helvetica,Arial,sans-serif" font-size="9.5" font-weight="700" fill="#2f855a">UQ</text>
<line x1="60" y1="668" x2="350" y2="668" stroke="#edf2f7"/>
<rect x="60" y="668" width="290" height="26" fill="#f7fafc"/>
<text x="72" y="685" font-family="Menlo,monospace" font-size="12.5" font-weight="400" fill="#1a202c">parentId</text>
<text x="210" y="685" font-family="Menlo,monospace" font-size="11" fill="#718096">uuid</text>
<rect x="312" y="673" width="30" height="16" rx="8" fill="#bee3f8"/>
<text x="327" y="684.5" text-anchor="middle" font-family="Helvetica,Arial,sans-serif" font-size="9.5" font-weight="700" fill="#2b6cb0">FK</text>
<line x1="60" y1="694" x2="350" y2="694" stroke="#edf2f7"/>
<rect x="60" y="694" width="290" height="26" fill="#ffffff"/>
<text x="72" y="711" font-family="Menlo,monospace" font-size="12.5" font-weight="400" fill="#1a202c">createdById</text>
<text x="210" y="711" font-family="Menlo,monospace" font-size="11" fill="#718096">uuid</text>
<rect x="312" y="699" width="30" height="16" rx="8" fill="#bee3f8"/>
<text x="327" y="710.5" text-anchor="middle" font-family="Helvetica,Arial,sans-serif" font-size="9.5" font-weight="700" fill="#2b6cb0">FK</text>
<line x1="60" y1="720" x2="350" y2="720" stroke="#edf2f7"/>
<rect x="60" y="720" width="290" height="26" fill="#f7fafc"/>
<text x="72" y="737" font-family="Menlo,monospace" font-size="12.5" font-weight="400" fill="#1a202c">createdAt</text>
<text x="210" y="737" font-family="Menlo,monospace" font-size="11" fill="#718096">timestamp</text>
<line x1="60" y1="746" x2="350" y2="746" stroke="#edf2f7"/>
<rect x="60" y="746" width="290" height="26" fill="#ffffff"/>
<text x="72" y="763" font-family="Menlo,monospace" font-size="12.5" font-weight="400" fill="#1a202c">updatedAt</text>
<text x="210" y="763" font-family="Menlo,monospace" font-size="11" fill="#718096">timestamp</text>
<rect x="783" y="543" width="290" height="316" rx="8" fill="#00000018"/>
<rect x="780" y="540" width="290" height="316" rx="8" fill="#ffffff" stroke="#cbd5e0" stroke-width="1.5"/>
<path d="M780,548 a8,8 0 0 1 8,-8 h274 a8,8 0 0 1 8,8 v22 h-290 z" fill="#2d3748"/>
<text x="925.0" y="560" text-anchor="middle" font-family="Helvetica,Arial,sans-serif" font-size="15" font-weight="700" fill="#fff">products</text>
<rect x="780" y="570" width="290" height="26" fill="#ffffff"/>
<text x="792" y="587" font-family="Menlo,monospace" font-size="12.5" font-weight="700" fill="#1a202c" text-decoration="underline">id</text>
<text x="930" y="587" font-family="Menlo,monospace" font-size="11" fill="#718096">uuid</text>
<rect x="1032" y="575" width="30" height="16" rx="8" fill="#fefcbf"/>
<text x="1047" y="586.5" text-anchor="middle" font-family="Helvetica,Arial,sans-serif" font-size="9.5" font-weight="700" fill="#b7791f">PK</text>
<line x1="780" y1="596" x2="1070" y2="596" stroke="#edf2f7"/>
<rect x="780" y="596" width="290" height="26" fill="#f7fafc"/>
<text x="792" y="613" font-family="Menlo,monospace" font-size="12.5" font-weight="400" fill="#1a202c">name</text>
<text x="930" y="613" font-family="Menlo,monospace" font-size="11" fill="#718096">varchar</text>
<line x1="780" y1="622" x2="1070" y2="622" stroke="#edf2f7"/>
<rect x="780" y="622" width="290" height="26" fill="#ffffff"/>
<text x="792" y="639" font-family="Menlo,monospace" font-size="12.5" font-weight="400" fill="#1a202c">description</text>
<text x="930" y="639" font-family="Menlo,monospace" font-size="11" fill="#718096">text</text>
<line x1="780" y1="648" x2="1070" y2="648" stroke="#edf2f7"/>
<rect x="780" y="648" width="290" height="26" fill="#f7fafc"/>
<text x="792" y="665" font-family="Menlo,monospace" font-size="12.5" font-weight="400" fill="#1a202c">price</text>
<text x="930" y="665" font-family="Menlo,monospace" font-size="11" fill="#718096">int (minor units)</text>
<line x1="780" y1="674" x2="1070" y2="674" stroke="#edf2f7"/>
<rect x="780" y="674" width="290" height="26" fill="#ffffff"/>
<text x="792" y="691" font-family="Menlo,monospace" font-size="12.5" font-weight="400" fill="#1a202c">currency</text>
<text x="930" y="691" font-family="Menlo,monospace" font-size="11" fill="#718096">char(3)</text>
<line x1="780" y1="700" x2="1070" y2="700" stroke="#edf2f7"/>
<rect x="780" y="700" width="290" height="26" fill="#f7fafc"/>
<text x="792" y="717" font-family="Menlo,monospace" font-size="12.5" font-weight="400" fill="#1a202c">sku</text>
<text x="930" y="717" font-family="Menlo,monospace" font-size="11" fill="#718096">varchar</text>
<rect x="1032" y="705" width="30" height="16" rx="8" fill="#c6f6d5"/>
<text x="1047" y="716.5" text-anchor="middle" font-family="Helvetica,Arial,sans-serif" font-size="9.5" font-weight="700" fill="#2f855a">UQ</text>
<line x1="780" y1="726" x2="1070" y2="726" stroke="#edf2f7"/>
<rect x="780" y="726" width="290" height="26" fill="#ffffff"/>
<text x="792" y="743" font-family="Menlo,monospace" font-size="12.5" font-weight="400" fill="#1a202c">stock</text>
<text x="930" y="743" font-family="Menlo,monospace" font-size="11" fill="#718096">int</text>
<line x1="780" y1="752" x2="1070" y2="752" stroke="#edf2f7"/>
<rect x="780" y="752" width="290" height="26" fill="#f7fafc"/>
<text x="792" y="769" font-family="Menlo,monospace" font-size="12.5" font-weight="400" fill="#1a202c">categoryId</text>
<text x="930" y="769" font-family="Menlo,monospace" font-size="11" fill="#718096">uuid</text>
<rect x="1032" y="757" width="30" height="16" rx="8" fill="#bee3f8"/>
<text x="1047" y="768.5" text-anchor="middle" font-family="Helvetica,Arial,sans-serif" font-size="9.5" font-weight="700" fill="#2b6cb0">FK</text>
<line x1="780" y1="778" x2="1070" y2="778" stroke="#edf2f7"/>
<rect x="780" y="778" width="290" height="26" fill="#ffffff"/>
<text x="792" y="795" font-family="Menlo,monospace" font-size="12.5" font-weight="400" fill="#1a202c">createdById</text>
<text x="930" y="795" font-family="Menlo,monospace" font-size="11" fill="#718096">uuid</text>
<rect x="1032" y="783" width="30" height="16" rx="8" fill="#bee3f8"/>
<text x="1047" y="794.5" text-anchor="middle" font-family="Helvetica,Arial,sans-serif" font-size="9.5" font-weight="700" fill="#2b6cb0">FK</text>
<line x1="780" y1="804" x2="1070" y2="804" stroke="#edf2f7"/>
<rect x="780" y="804" width="290" height="26" fill="#f7fafc"/>
<text x="792" y="821" font-family="Menlo,monospace" font-size="12.5" font-weight="400" fill="#1a202c">createdAt</text>
<text x="930" y="821" font-family="Menlo,monospace" font-size="11" fill="#718096">timestamp</text>
<line x1="780" y1="830" x2="1070" y2="830" stroke="#edf2f7"/>
<rect x="780" y="830" width="290" height="26" fill="#ffffff"/>
<text x="792" y="847" font-family="Menlo,monospace" font-size="12.5" font-weight="400" fill="#1a202c">updatedAt</text>
<text x="930" y="847" font-family="Menlo,monospace" font-size="11" fill="#718096">timestamp</text>
<rect x="60" y="78" width="312" height="210" rx="8" fill="#fff" stroke="#cbd5e0"/>
<text x="74" y="100" font-size="13" font-weight="700" fill="#2d3748">Notation (Crow's Foot)</text>
<rect x="76" y="112" width="30" height="16" rx="8" fill="#fefcbf"/>
<text x="91" y="123.5" text-anchor="middle" font-size="9.5" font-weight="700" fill="#b7791f">PK</text>
<text x="112" y="124" font-size="10.5" fill="#4a5568">Primary key</text>
<rect x="176" y="112" width="30" height="16" rx="8" fill="#bee3f8"/>
<text x="191" y="123.5" text-anchor="middle" font-size="9.5" font-weight="700" fill="#2b6cb0">FK</text>
<text x="212" y="124" font-size="10.5" fill="#4a5568">Foreign key</text>
<rect x="276" y="112" width="30" height="16" rx="8" fill="#c6f6d5"/>
<text x="291" y="123.5" text-anchor="middle" font-size="9.5" font-weight="700" fill="#2f855a">UQ</text>
<text x="312" y="124" font-size="10.5" fill="#4a5568">Unique</text>
<text x="76" y="152" font-family="Menlo,monospace" font-size="10.5" fill="#4a5568">inner mark = cardinality:   bar = one     crow = many</text>
<text x="76" y="174" font-family="Menlo,monospace" font-size="10.5" fill="#4a5568">outer mark = participation: bar = total(1)  o = partial(0)</text>
<text x="76" y="196" font-family="Menlo,monospace" font-size="10.5" fill="#4a5568">||  exactly one        o|  zero or one</text>
<text x="76" y="218" font-family="Menlo,monospace" font-size="10.5" fill="#4a5568">|&lt;  one or many        o&lt;  zero or many</text>
<rect x="60" y="812" width="690" height="212" rx="8" fill="#fff" stroke="#cbd5e0"/>
<text x="74" y="836" font-size="13" font-weight="700" fill="#2d3748">Relationships — cardinality &amp; participation</text>
<text x="74" y="858" font-size="10.5" font-weight="700" fill="#718096">RELATIONSHIP</text>
<text x="390" y="858" font-size="10.5" font-weight="700" fill="#718096">CARD.</text>
<text x="490" y="858" font-size="10.5" font-weight="700" fill="#718096">PARTICIPATION</text>
<text x="74" y="882" font-family="Menlo,monospace" font-size="11.5" fill="#1a202c">users —creates→ products</text>
<text x="390" y="882" font-family="Menlo,monospace" font-size="11.5" font-weight="700" fill="#2b6cb0">1 : N</text>
<text x="490" y="882" font-size="11" fill="#4a5568">users partial · products total</text>
<rect x="68" y="892" width="674" height="24" rx="4" fill="#f7fafc"/>
<text x="74" y="908" font-family="Menlo,monospace" font-size="11.5" fill="#1a202c">users —orders→ products</text>
<text x="390" y="908" font-family="Menlo,monospace" font-size="11.5" font-weight="700" fill="#2b6cb0">M : N</text>
<text x="490" y="908" font-size="11" fill="#4a5568">both partial  (via Orders junction)</text>
<text x="74" y="934" font-family="Menlo,monospace" font-size="11.5" fill="#1a202c">users —creates→ categories</text>
<text x="390" y="934" font-family="Menlo,monospace" font-size="11.5" font-weight="700" fill="#2b6cb0">1 : N</text>
<text x="490" y="934" font-size="11" fill="#4a5568">users partial · categories total</text>
<rect x="68" y="944" width="674" height="24" rx="4" fill="#f7fafc"/>
<text x="74" y="960" font-family="Menlo,monospace" font-size="11.5" fill="#1a202c">products —belongs to→ categories</text>
<text x="390" y="960" font-family="Menlo,monospace" font-size="11.5" font-weight="700" fill="#2b6cb0">N : 1</text>
<text x="490" y="960" font-size="11" fill="#4a5568">product partial · category partial</text>
<text x="74" y="986" font-family="Menlo,monospace" font-size="11.5" fill="#1a202c">categories —parent of→ categories</text>
<text x="390" y="986" font-family="Menlo,monospace" font-size="11.5" font-weight="700" fill="#2b6cb0">1 : N</text>
<text x="490" y="986" font-size="11" fill="#4a5568">both partial  (self-reference)</text>
</svg>